<svg xmlns="http://www.w3.org/2000/svg" version="1.1" xmlns:xlink="http://www.w3.org/1999/xlink" width="512" height="512" x="0" y="0" viewBox="0 0 24 24" xml:space="preserve" class=""><g><path fill="#c6c6c6" fill-rule="evenodd" d="M2 12C2 6.477 6.477 2 12 2s10 4.477 10 10-4.477 10-10 10S2 17.523 2 12zm12.856-2.732a2.856 2.856 0 1 1-5.713 0 2.856 2.856 0 0 1 5.713 0zm-1.137 4.1H10.28a3.26 3.26 0 0 0-3.26 3.261c0 .53.429.96.959.96h8.042c.53 0 .96-.43.96-.96 0-1.8-1.46-3.26-3.262-3.26z" clip-rule="evenodd" opacity="1" class=""></path></g></svg>